HIERARCHY
ROOT hip
{
  OFFSET 0 0 0
  CHANNELS 6 Xposition Yposition Zposition Zrotation Yrotation Xrotation
  JOINT abdomen
  {
    OFFSET 0 20.6881 -0.73152
    CHANNELS 3 Zrotation Xrotation Yrotation
    JOINT chest
    {
      OFFSET 0 11.7043 -0.48768
      CHANNELS 3 Zrotation Xrotation Yrotation
      JOINT neck
      {
        OFFSET 0 22.1894 -2.19456
        CHANNELS 3 Zrotation Xrotation Yrotation
        JOINT head
        {
          OFFSET -0.24384 7.07133 1.2192
          CHANNELS 3 Zrotation Xrotation Yrotation
          JOINT leftEye
          {
            OFFSET 4.14528 8.04674 8.04672
            CHANNELS 3 Zrotation Xrotation Yrotation
            End Site
            {
              OFFSET 1 0 0
            }
          }
          JOINT rightEye
          {
            OFFSET -3.6576 8.04674 8.04672
            CHANNELS 3 Zrotation Xrotation Yrotation
            End Site
            {
              OFFSET 1 0 0
            }
          }
        }
      }
      JOINT rCollar
      {
        OFFSET -2.68224 19.2634 -4.8768
        CHANNELS 3 Zrotation Xrotation Yrotation
        JOINT rShldr
        {
          OFFSET -8.77824 -1.95073 1.46304
          CHANNELS 3 Zrotation Xrotation Yrotation
          JOINT rForeArm
          {
            OFFSET -28.1742 -1.7115 0.48768
            CHANNELS 3 Zrotation Xrotation Yrotation
            JOINT rHand
            {
              OFFSET -22.5879 0.773209 7.07136
              CHANNELS 3 Zrotation Xrotation Yrotation
              JOINT rThumb1
              {
                OFFSET -1.2192 -0.487915 3.41376
                CHANNELS 3 Zrotation Xrotation Yrotation
                JOINT rThumb2
                {
                  OFFSET -3.37035 -0.52449 3.41376
                  CHANNELS 3 Zrotation Xrotation Yrotation
                  End Site
                  {
                    OFFSET -1.78271 -1.18214 1.43049
                  }
                }
              }
              JOINT rIndex1
              {
                OFFSET -7.75947 0.938293 5.60832
                CHANNELS 3 Zrotation Xrotation Yrotation
                JOINT rIndex2
                {
                  OFFSET -2.54057 -0.884171 1.56538
                  CHANNELS 3 Zrotation Xrotation Yrotation
                  End Site
                  {
                    OFFSET -1.62519 -0.234802 1.16502
                  }
                }
              }
              JOINT rMid1
              {
                OFFSET -8.24714 1.18213 3.41376
                CHANNELS 3 Zrotation Xrotation Yrotation
                JOINT rMid2
                {
                  OFFSET -3.10165 -0.590103 1.0647
                  CHANNELS 3 Zrotation Xrotation Yrotation
                  End Site
                  {
                    OFFSET -2.48547 -0.328903 0.83742
                  }
                }
              }
              JOINT rRing1
              {
                OFFSET -8.82822 0.546677 1.51678
                CHANNELS 3 Zrotation Xrotation Yrotation
                JOINT rRing2
                {
                  OFFSET -2.60934 -0.819778 -0.0198488
                  CHANNELS 3 Zrotation Xrotation Yrotation
                  End Site
                  {
                    OFFSET -2.33842 -0.294052 0.168128
                  }
                }
              }
              JOINT rPinky1
              {
                OFFSET -8.27202 -0.0477905 -0.4584
                CHANNELS 3 Zrotation Xrotation Yrotation
                JOINT rPinky2
                {
                  OFFSET -1.82734 -0.647385 -0.700984
                  CHANNELS 3 Zrotation Xrotation Yrotation
                  End Site
                  {
                    OFFSET -1.69225 -0.51767 -0.607171
                  }
                }
              }
            }
          }
        }
      }
      JOINT lCollar
      {
        OFFSET 2.68224 19.2634 -4.8768
        CHANNELS 3 Zrotation Xrotation Yrotation
        JOINT lShldr
        {
          OFFSET 8.77824 -1.95073 1.46304
          CHANNELS 3 Zrotation Xrotation Yrotation
          JOINT lForeArm
          {
            OFFSET 28.1742 -1.7115 0.48768
            CHANNELS 3 Zrotation Xrotation Yrotation
            JOINT lHand
            {
              OFFSET 22.5879 0.773209 7.07136
              CHANNELS 3 Zrotation Xrotation Yrotation
              JOINT lThumb1
              {
                OFFSET 1.2192 -0.487915 3.41376
                CHANNELS 3 Zrotation Xrotation Yrotation
                JOINT lThumb2
                {
                  OFFSET 3.37035 -0.52449 3.41376
                  CHANNELS 3 Zrotation Xrotation Yrotation
                  End Site
                  {
                    OFFSET 1.78271 -1.18214 1.43049
                  }
                }
              }
              JOINT lIndex1
              {
                OFFSET 7.75947 0.938293 5.60832
                CHANNELS 3 Zrotation Xrotation Yrotation
                JOINT lIndex2
                {
                  OFFSET 2.54057 -0.884171 1.56538
                  CHANNELS 3 Zrotation Xrotation Yrotation
                  End Site
                  {
                    OFFSET 1.62519 -0.234802 1.16502
                  }
                }
              }
              JOINT lMid1
              {
                OFFSET 8.24714 1.18213 3.41376
                CHANNELS 3 Zrotation Xrotation Yrotation
                JOINT lMid2
                {
                  OFFSET 3.10165 -0.590103 1.0647
                  CHANNELS 3 Zrotation Xrotation Yrotation
                  End Site
                  {
                    OFFSET 2.48547 -0.328903 0.83742
                  }
                }
              }
              JOINT lRing1
              {
                OFFSET 8.82822 0.546677 1.51678
                CHANNELS 3 Zrotation Xrotation Yrotation
                JOINT lRing2
                {
                  OFFSET 2.60934 -0.819778 -0.0198488
                  CHANNELS 3 Zrotation Xrotation Yrotation
                  End Site
                  {
                    OFFSET 2.33842 -0.294052 0.168128
                  }
                }
              }
              JOINT lPinky1
              {
                OFFSET 8.27202 -0.0477905 -0.4584
                CHANNELS 3 Zrotation Xrotation Yrotation
                JOINT lPinky2
                {
                  OFFSET 1.82734 -0.647385 -0.700984
                  CHANNELS 3 Zrotation Xrotation Yrotation
                  End Site
                  {
                    OFFSET 1.69225 -0.51767 -0.607171
                  }
                }
              }
            }
          }
        }
      }
    }
  }
  JOINT rButtock
  {
    OFFSET -8.77824 4.35084 1.2192
    CHANNELS 3 Zrotation Xrotation Yrotation
    JOINT rThigh
    {
      OFFSET 0 -1.70687 -2.19456
      CHANNELS 3 Zrotation Xrotation Yrotation
      JOINT rShin
      {
        OFFSET 0 -36.8199 0.73152
        CHANNELS 3 Zrotation Xrotation Yrotation
        JOINT rFoot
        {
          OFFSET 0.73152 -45.1104 -5.12064
          CHANNELS 3 Zrotation Xrotation Yrotation
          End Site
          {
            OFFSET -1.1221 -3.69964 12.103
          }
        }
      }
    }
  }
  JOINT lButtock
  {
    OFFSET 8.77824 4.35084 1.2192
    CHANNELS 3 Zrotation Xrotation Yrotation
    JOINT lThigh
    {
      OFFSET 0 -1.70687 -2.19456
      CHANNELS 3 Zrotation Xrotation Yrotation
      JOINT lShin
      {
        OFFSET 0 -36.8199 0.73152
        CHANNELS 3 Zrotation Xrotation Yrotation
        JOINT lFoot
        {
          OFFSET -0.73152 -45.1104 -5.12064
          CHANNELS 3 Zrotation Xrotation Yrotation
          End Site
          {
            OFFSET 1.1221 -3.69964 12.103
          }
        }
      }
    }
  }
}
MOTION
Frames:	4
Frame Time:	0.00833333
45.5202 99.6976 -81.1068 -409.861 41.3995 464.284 -12.2935 0.522274 -9.28589 -9.6031 -3.91852 -2.91407 3.2465 13.5696 -6.94454 -23.8248 -67.8354 -34.4488 -0.0 0.0 0.0 -0.0 0.0 0.0 4.74711e-13 1.16484e-12 -3.79654e-13 2.00685 -60.2223 50.1366 -17.9853 -10.6681 33.995 -0.130205 10.3307 1.46714 1.48352e-09 -1.03182e-09 9.22283e-10 2.56978e-09 -1.79038e-09 1.57965e-09 1.48352e-09 -1.03182e-09 9.22266e-10 7.73091 5.47488 0.417314 1.48352e-09 -1.03182e-09 9.22284e-10 2.90554 0.965183 0.102902 1.48352e-09 -1.03182e-09 9.22278e-10 10.2786 0.731801 0.0259123 1.48352e-09 -1.03182e-09 9.22282e-10 2.22167 -0.733487 -0.20892 4.74637e-13 1.16488e-12 -3.79902e-13 -39.2709 -47.9398 -101.757 10.1288 -4.29118 -17.936 0.153021 13.4859 -1.91408 7.60795e-10 1.39352e-09 1.45643e-09 1.31304e-09 2.41028e-09 2.51443e-09 7.60791e-10 1.39353e-09 1.45643e-09 -7.73091 5.47488 -0.417314 7.60795e-10 1.39352e-09 1.45642e-09 -2.90554 0.965183 -0.102902 7.60787e-10 1.39352e-09 1.45643e-09 -10.2786 0.731801 -0.0259123 7.60799e-10 1.39352e-09 1.45642e-09 -2.22167 -0.733487 0.20892 -2.03217e-16 0.0 -3.88251e-19 -10.8155 14.5589 8.63471 -0.0272822 8.71062 0.0376481 12.3911 14.5943 -44.1214 2.03217e-16 0.0 3.88251e-19 100.251 -45.2174 73.2969 0.0546652 3.82584 0.515721 1.3587 -10.1459 7.93437
45.427 100.525 -78.5891 -409.374 42.5762 465.346 -12.9644 0.698215 -9.9221 -9.78851 -4.11236 -3.09137 3.41398 13.4369 -7.49842 -25.8298 -66.8691 -36.845 -0.0 0.0 0.0 -0.0 0.0 0.0 4.71577e-13 1.21854e-12 -3.30396e-13 0.555427 -60.1312 47.4904 -18.1082 -10.8006 34.2715 -0.185418 12.2633 1.75005 1.96827e-09 -1.22505e-10 1.69437e-09 3.41746e-09 -2.10624e-10 2.90979e-09 1.96827e-09 -1.22506e-10 1.69436e-09 7.73091 5.47488 0.417314 1.96827e-09 -1.22506e-10 1.69438e-09 2.90554 0.965183 0.102902 1.96828e-09 -1.22505e-10 1.69437e-09 10.2786 0.731801 0.0259123 1.96827e-09 -1.22503e-10 1.69437e-09 2.22167 -0.733487 -0.20892 4.71499e-13 1.21858e-12 -3.30615e-13 -29.129 -49.2385 -92.7846 11.4023 -5.0858 -20.3873 0.0354477 8.38166 -1.17613 1.17553e-09 1.5638e-09 2.64021e-09 2.03972e-09 2.71024e-09 4.55955e-09 1.17553e-09 1.56381e-09 2.64022e-09 -7.73091 5.47488 -0.417314 1.17553e-09 1.5638e-09 2.64021e-09 -2.90554 0.965183 -0.102902 1.17553e-09 1.5638e-09 2.64021e-09 -10.2786 0.731801 -0.0259123 1.17554e-09 1.5638e-09 2.6402e-09 -2.22167 -0.733487 0.20892 -2.03217e-16 0.0 -3.88251e-19 -11.8555 15.1725 10.3403 -0.037952 9.2898 -0.0365242 11.7715 13.936 -44.1369 2.03217e-16 0.0 3.88251e-19 88.2809 -40.4805 35.4581 0.0536343 -0.733419 0.602348 4.63092 -41.1974 8.44551
45.3762 101.178 -76.1872 -408.913 43.6709 466.165 -13.5551 0.814014 -10.3978 -9.79521 -4.32327 -3.2239 3.48532 13.3423 -8.02652 -27.2623 -66.0718 -38.8141 -0.0 0.0 0.0 -0.0 0.0 0.0 4.8027e-13 1.21177e-12 -2.90872e-13 -0.676861 -60.0269 45.0469 -18.2851 -10.9964 34.6627 -0.248411 14.0503 2.01562 2.15213e-09 6.13709e-10 2.28161e-09 3.74327e-09 1.06913e-09 3.92353e-09 2.15213e-09 6.13708e-10 2.2816e-09 7.73091 5.47488 0.417314 2.15213e-09 6.13707e-10 2.28162e-09 2.90554 0.965183 0.102902 2.15213e-09 6.13708e-10 2.28161e-09 10.2786 0.731801 0.0259123 2.15213e-09 6.13712e-10 2.28162e-09 2.22167 -0.733487 -0.20892 4.80189e-13 1.21181e-12 -2.9107e-13 -21.6517 -49.4047 -86.1553 12.3386 -5.6889 -22.2672 0.0308007 5.0033 -0.704979 1.35085e-09 1.24043e-09 3.46572e-09 2.34947e-09 2.15374e-09 5.98677e-09 1.35085e-09 1.24043e-09 3.46573e-09 -7.73091 5.47488 -0.417314 1.35085e-09 1.24043e-09 3.46571e-09 -2.90554 0.965183 -0.102902 1.35085e-09 1.24043e-09 3.46572e-09 -10.2786 0.731801 -0.0259123 1.35086e-09 1.24043e-09 3.46571e-09 -2.22167 -0.733487 0.20892 -2.03217e-16 0.0 -3.88251e-19 -12.9951 15.7739 11.8803 -0.0431642 9.57121 -0.0814219 11.168 13.2665 -44.1803 2.03217e-16 0.0 3.88251e-19 91.4219 -26.6136 16.1691 0.0531719 -3.46429 0.619278 10.2564 -61.1698 13.3532
45.3887 101.599 -73.9454 -408.67 44.8846 466.566 -14.087 0.950199 -10.6406 -9.52081 -4.58905 -3.29585 3.42512 13.3285 -8.53596 -28.1871 -65.5592 -40.4827 -0.0 0.0 0.0 -0.0 0.0 0.0 5.19971e-13 1.17567e-12 -2.71936e-13 -1.67626 -59.9543 42.7962 -18.546 -11.2905 35.2431 -0.314543 15.7373 2.26942 1.87625e-09 1.18528e-09 2.68777e-09 3.27322e-09 2.06441e-09 4.62913e-09 1.87626e-09 1.18528e-09 2.68776e-09 7.73091 5.47488 0.417314 1.87625e-09 1.18528e-09 2.68778e-09 2.90554 0.965183 0.102902 1.87625e-09 1.18528e-09 2.68777e-09 10.2786 0.731801 0.0259123 1.87625e-09 1.18529e-09 2.68778e-09 2.22167 -0.733487 -0.20892 5.19889e-13 1.1757e-12 -2.72126e-13 -18.5208 -49.3233 -83.4718 12.8613 -6.04984 -23.3224 0.0419049 4.14268 -0.586984 1.14772e-09 -6.72851e-12 3.87169e-09 2.00099e-09 -4.72178e-12 6.69135e-09 1.14771e-09 -6.72407e-12 3.87169e-09 -7.73091 5.47488 -0.417314 1.14772e-09 -6.72873e-12 3.87168e-09 -2.90554 0.965183 -0.102902 1.14772e-09 -6.72845e-12 3.87168e-09 -10.2786 0.731801 -0.0259123 1.14773e-09 -6.72667e-12 3.87167e-09 -2.22167 -0.733487 0.20892 -2.03217e-16 0.0 -3.88251e-19 -14.2671 16.4558 13.2436 -0.0422222 9.47059 -0.0824838 10.6371 12.6682 -44.1903 2.03217e-16 0.0 3.88251e-19 94.2742 -21.3228 9.62533 0.0360088 -3.50066 0.522474 18.0411 -64.8328 21.392
